<svg xmlns="http://www.w3.org/2000/svg" viewBox="0 0 64 64" width="64" height="64">
  <defs>
    <linearGradient id="bg-l" x1="0" y1="0" x2="1" y2="1">
      <stop offset="0%" stop-color="#7aad85"/>
      <stop offset="100%" stop-color="#4e7a5a"/>
    </linearGradient>
    <linearGradient id="bg-d" x1="0" y1="0" x2="1" y2="1">
      <stop offset="0%" stop-color="#9fc4a8"/>
      <stop offset="100%" stop-color="#6b9475"/>
    </linearGradient>
  </defs>
  <style>
    .bg { fill: url(#bg-l); }
    @media (prefers-color-scheme: dark) { .bg { fill: url(#bg-d); } }
  </style>
  <rect class="bg" width="64" height="64" rx="14"/>
  <g transform="translate(12, 12) scale(1.6667)">
    <path fill="white" d="M13.5 12.5V5.5C13.5 4.67157 12.8284 4 12 4C11.1716 4 10.5 4.67157 10.5 5.5V12.5C10.5 13.3284 11.1716 14 12 14C12.8284 14 13.5 13.3284 13.5 12.5Z"/>
    <path fill="white" d="M12 20C12.8284 20 13.5 19.3284 13.5 18.5C13.5 17.6716 12.8284 17 12 17C11.1716 17 10.5 17.6716 10.5 18.5C10.5 19.3284 11.1716 20 12 20Z"/>
  </g>
</svg>
